<svg xmlns="http://www.w3.org/2000/svg" viewBox="0 0 96.3 87.96"><defs><style>.cls-1{fill:#fff200;}</style></defs><g id="Capa_2" data-name="Capa 2"><g id="Capa_1-2" data-name="Capa 1"><path class="cls-1" d="M74.42,30.58a27,27,0,0,1,3,13.35c-.11,2.28,4.25,3.15,6.74,9.36.63,1.58,9.19,6.38,6.62,12.17-2,4.5-5.44,9.4-9.56,11.88-5.31,3.18-7.58-3.28-10.07-2C66,78,62,70.85,59.61,72c-21.82,10.2-38.94-.34-43.48-16.81C5.93,18.16,58.43-1.79,74.42,30.58Zm-12,33.8c-.85-1.94-28.15-8.14-23.39-12.7,1.59-1.53-1.06-6.61,3.5-15.58,1.4-2.75-.6-2.38-1.08-4.37-.56-2.29,2.38-3.91,4.2-1.53,0,0,23.12,27,23.16,27,3.11-4.15,7.18-18.77-2.26-30.49C53.73,10.81,16.5,19.11,20.47,52.42,22,65,33.5,70.91,40.33,71.61,48.73,72.47,59.18,67.81,62.44,64.38ZM46.5,38.08c-1.67,3.27-4.74,13.69-1.4,14.46,0,0,18.48,7,19.27,6.34C61.11,54.64,57.65,50.61,54,46.46c-.15,1.56.39,2.77.34,4,0,.92-.21,1.8.79,2.41.61.37.22,1.73-.81,1.73s-3.08-2-2.66-3c.61-1.32.17-2.48,0-3.71-.35-2.23.51-1.91,1.43-2.46a45.77,45.77,0,0,0-3.49-3.94c-.68,2.54.12,6-.55,7.07-1.42,2.4,1.5,3.44-.4,4.29-1.22.55-1.7-.63-2.62-2.64s.95-1.47.94-3.56c0-1.39,0-2.77-.06-4.16,0-1.14.22-2.07,1.6-2.27A8.3,8.3,0,0,0,46.5,38.08Zm17.69,31c5.56,6.11,10.11-1.28,15.07-9.91,1.62-2.82.45-6.44-2.68-8.6A31.67,31.67,0,0,1,64.19,69.08Zm19.89-9.55c-6.53,12.81-10,12.24-7.65,13.58,2,1.19,2.09,1.27,3.81-.23,2.13-1.85,7.38-8.61,6.22-10.34A13.83,13.83,0,0,0,84.08,59.53Z"/><path class="cls-1" d="M87.94,45.87c-2.15-.49-4.29-1-6.44-1.55-2.45-.6-2-2.74.18-2.25,8.69,1.93,8.64,1.82,9.09,2.28S91.77,46.74,87.94,45.87Z"/><path class="cls-1" d="M84.73,80.07c-3.26.68,3.42-4.06,7.41-11.53.71-1.32,1.92-.75,1.43.56S85.56,79.9,84.73,80.07Z"/><path class="cls-1" d="M52.73,1.46c1-1.18,2.07-.54,2,.43,0,.78-1.58,7.56-1.59,7.6C52.86,10.9,51,10.87,51,9.23c0-.84.11-1.55,1.3-6.6C52.45,2.18,52.63,1.76,52.73,1.46Z"/><path class="cls-1" d="M85.46,28.19c-2.22.45-6,1.89-7.59,1.89A1.06,1.06,0,0,1,77.5,28c2.16-.47,4.24-1.22,6.35-1.83C86.43,25.43,86.78,27.93,85.46,28.19Z"/><path class="cls-1" d="M25.91,13.92c1,2-.89,2.93-1.95,1.27-4.1-6.44-4.38-6.69-3.36-7.42C22,6.76,25.52,13.16,25.91,13.92Z"/><path class="cls-1" d="M71.33,15.16c-2.07,2.9-2.48,3.87-3.52,3.19-1.81-1.19,3.74-7.5,4.3-7.78,1.34-.68,2.18.57,1.46,1.51s-1.57,2-2.35,3Z"/><path class="cls-1" d="M57.51,87.56c-.74-.56-3.35-8.07-1.44-8.58s1.54,2.68,3,7C59.21,86.42,58.36,88.2,57.51,87.56Z"/><path class="cls-1" d="M36.22,8.3a.93.93,0,0,1-.88-.91C34.87,2,33.67.77,34.84.09,36.71-1,39.08,8.55,36.22,8.3Z"/><path class="cls-1" d="M11.06,56.27c-.66.32-4.72,2.33-5.36,2.46-1.74.35-2-1.53-.79-2,1.9-.73,3.6-1.83,5.44-2.68S13.5,55.06,11.06,56.27Z"/><path class="cls-1" d="M40.37,81.48a45.69,45.69,0,0,1-2,5.89,1.05,1.05,0,0,1-2-.58A58,58,0,0,1,38.18,81C38.76,79.39,40.67,80,40.37,81.48Z"/><path class="cls-1" d="M6.64,40.16c-4.36-.23-6.92,0-6.62-1.76.16-.93.7-1.15,7.07-.42C8.78,38.17,8.79,40.27,6.64,40.16Z"/><path class="cls-1" d="M94.77,70.5c.84-1.35,2-.38,1.34.7-6.54,11-7.46,7.87-6.62,6.79A44.44,44.44,0,0,0,94.77,70.5Z"/><path class="cls-1" d="M10.16,25.23c-.76-.53-1.53-1-2.27-1.6-1.39-1-.3-2.74,1.23-1.79,3.19,2,5.87,3.58,4.64,4.92-.88,1-1.94-.23-3.57-1.57Z"/><path class="cls-1" d="M20.7,71.42a1,1,0,0,1,1.14,1.66C18,76.25,17,77.25,16.22,76.31,14.9,74.71,20.06,71.66,20.7,71.42Z"/><path class="cls-1" d="M57.78,26.82c-4.77-2.32-5.36-1.6-5.1-2.65.18-.69,1.06-.46,1.85-.32C60,24.82,59.52,27.65,57.78,26.82Z"/><path class="cls-1" d="M62.56,29.3a.64.64,0,0,1-.87.88C59.32,29.06,60.13,25.84,62.56,29.3Z"/></g></g></svg>