<svg xmlns="http://www.w3.org/2000/svg" viewBox="0 0 357.9 45.87"><defs><style>.cls-1{fill:#fff;}</style></defs><g id="Capa_2" data-name="Capa 2"><g id="Capa_1-2" data-name="Capa 1"><path class="cls-1" d="M17.67,19.05c-5.76-.89-9.28-1.62-9.28-5.05,0-4.48,5.35-5.15,8.55-5.15,8,0,12,2,12,5.9v.34a.85.85,0,0,0,1.6.41,12.52,12.52,0,0,0,1.77-5.83c0-5.15-5.17-7.77-15.38-7.77C2.94,1.9,0,8.89,0,14.75c0,9.47,8.34,10.85,15,12,6.39,1.06,10.28,2,10.28,6.14,0,3.91-3,6.07-8.5,6.07-8.2,0-12.36-2-12.36-6a.85.85,0,0,0-.61-.81.83.83,0,0,0-1,.37A10.88,10.88,0,0,0,1,38c0,5,5.6,7.83,15.78,7.83,10.42,0,16.89-5.12,16.89-13.37C33.71,21.56,24.81,20.17,17.67,19.05Z"/><path class="cls-1" d="M49.93,13.55c-5.47,0-11.86,1.86-11.86,7.08A9.32,9.32,0,0,0,40.13,26a.85.85,0,0,0,1.54-.5c0-5,5.78-5.49,8.26-5.49,4.47,0,5.22,1.64,5.26,3.46-.79,1.46-3.5,2.08-6.37,2.75-5.15,1.18-11.56,2.66-11.56,10,0,6,4.5,9.61,12,9.61a25.49,25.49,0,0,0,4.81-.56A21.87,21.87,0,0,1,58,44.84a9.19,9.19,0,0,1,3.81.73.87.87,0,0,0,.81-.06A.88.88,0,0,0,63,44.8V24C63,17.35,58.2,13.55,49.93,13.55Zm5.44,17.37v7.8a13.44,13.44,0,0,1-5.21,1c-1.94,0-5.2-.45-5.2-3.48,0-2.58,2.48-3.3,6.27-4.11A16.32,16.32,0,0,0,55.37,30.92Z"/><path class="cls-1" d="M82.29,13.55a21.77,21.77,0,0,0-4.73.65,18.17,18.17,0,0,1-3.86.56,9.28,9.28,0,0,1-4-1,.84.84,0,0,0-.84,0,.86.86,0,0,0-.41.73V41.45c0,3.27,4.34,4.14,6.9,4.14a.85.85,0,0,0,.85-.85v-24A19.32,19.32,0,0,1,81.48,20c4.78,0,5.44,2.09,5.44,4.34V41.45c0,3.16,4.33,4.09,6.89,4.14h0a.85.85,0,0,0,.85-.85V23.46C94.67,17.16,90.16,13.55,82.29,13.55Z"/><path class="cls-1" d="M119.29,0h0V0a.85.85,0,0,0-.85.85V12.79a19.76,19.76,0,0,0,.14,2.37,14.38,14.38,0,0,0-7-1.61c-6.74,0-11.63,4.36-11.63,10.37V35.45c0,6.63,4.77,10.42,13.08,10.42a23.88,23.88,0,0,0,4.14-.49,21.87,21.87,0,0,1,3.93-.49,9.68,9.68,0,0,1,3.92.74.85.85,0,0,0,1.2-.78V4.71A3.92,3.92,0,0,0,125,1.84C123.3.14,120.22,0,119.29,0Zm-.88,24.21V38.8a14.19,14.19,0,0,1-4.74.76c-5.09,0-6-1.67-6-5V24.78c0-4.06,2.52-4.92,4.63-4.92C115.24,19.86,118.41,21.61,118.41,24.21Z"/><path class="cls-1" d="M144.81,13.55a19.54,19.54,0,0,0-4.77.7,14.71,14.71,0,0,1-3.24.51,8.08,8.08,0,0,1-3.6-.94.85.85,0,0,0-.83,0,.86.86,0,0,0-.4.72V41.39c0,3.31,4.34,4.2,6.9,4.2a.85.85,0,0,0,.85-.85V20.8a16.76,16.76,0,0,1,4.06-.59c1.24,0,5.32.3,5.32,4.11a.85.85,0,0,0,.58.81.87.87,0,0,0,.95-.3l.13-.17a8.87,8.87,0,0,0,2.17-5.24C152.93,15.75,149.9,13.55,144.81,13.55Z"/><path class="cls-1" d="M175.69,43.54a2,2,0,0,1-.54-1.45V16.81a.84.84,0,0,0-.33-.67c-2.25-1.72-5.42-2.59-9.41-2.59-5.48,0-11.87,1.86-11.87,7.08a9.34,9.34,0,0,0,2.07,5.4.85.85,0,0,0,.95.31.84.84,0,0,0,.58-.81c0-5,5.78-5.49,8.27-5.49,4.47,0,5.21,1.64,5.26,3.46-.79,1.46-3.51,2.08-6.37,2.75-5.16,1.18-11.57,2.66-11.57,10,0,6,4.5,9.61,12,9.61a25.6,25.6,0,0,0,4.82-.56,16.75,16.75,0,0,1,5.35-.37.82.82,0,0,0,.86-.44A.85.85,0,0,0,175.69,43.54Zm-4.84-12.62v7.8a13.53,13.53,0,0,1-5.21,1c-1.95,0-5.21-.45-5.21-3.48,0-2.58,2.48-3.3,6.27-4.11A16.28,16.28,0,0,0,170.85,30.92Z"/><path class="cls-1" d="M242.89,39c0,4-5.71,5.77-10.84,5.77-6.64,0-10.9-3.29-10.9-8.94v-12c0-5.59,3.74-8.94,10.61-8.94s10.84,3.35,10.84,8.37c0,4.55-3.11,8.07-11.13,8.07a20,20,0,0,1-7.15-1.5v5.14c0,4.32,1.84,6.69,7.73,6.69,5.24,0,9.51-2.08,9.51-6.35A6.32,6.32,0,0,1,242.89,39ZM224.32,26.86c-.23.12,4,1.33,6.86,1.33,6.11,0,8.25-1.91,8.25-5s-1.91-5.37-7.56-5.37c-6.11,0-7.55,2.54-7.55,6.81ZM234.7,9.5l-2.77,2.19c-1.5-.17-3.17-1.09-1.85-2.3l4-3.75c1.33-1.33,2.48-2.77,2-4.85C239.77,3,240.58,4.83,234.7,9.5Z"/><path class="cls-1" d="M268.9,24c0-3.8-2-6.05-7.67-6.05a18.9,18.9,0,0,0-7.67,1.38V44.45s-3.17,0-3.17-2.54V15.33a5.84,5.84,0,0,0,2.59.8c2.89,0,5.48-1.27,9.06-1.27,4.9,0,10,1.79,10,8.31V44.45s-3.17,0-3.17-2.54Z"/><path class="cls-1" d="M298.66,1.37a2.83,2.83,0,0,1,3.18,3.06V44.34a8.32,8.32,0,0,0-3.06-.58c-2.37,0-5.25,1-8.13,1-6.64,0-10.5-3.46-10.5-8.77V23.63c0-5.48,4.33-8.71,9.4-8.71,8.08,0,9.75,3.58,9.75,3.58s-.64-1.1-.64-6.06Zm0,22.55c0-3.58-4.21-6-8.36-6-4,0-7,2-7,6.58V35.11c0,4.44,2,6.63,8.37,6.63a16.61,16.61,0,0,0,7-1.38Z"/><path class="cls-1" d="M331.66,39c0,4-5.71,5.77-10.85,5.77-6.63,0-10.9-3.29-10.9-8.94v-12c0-5.59,3.75-8.94,10.61-8.94s10.85,3.35,10.85,8.37c0,4.55-3.12,8.07-11.13,8.07a20.11,20.11,0,0,1-7.16-1.5v5.14c0,4.32,1.85,6.69,7.73,6.69,5.25,0,9.52-2.08,9.52-6.35A6.32,6.32,0,0,1,331.66,39ZM313.08,26.86c-.23.12,4,1.33,6.87,1.33,6.11,0,8.25-1.91,8.25-5s-1.91-5.37-7.56-5.37c-6.11,0-7.56,2.54-7.56,6.81Z"/><path class="cls-1" d="M337.71,18.56s0-3,2.2-3h17.53c-.35,1.27-.41,2.65-.75,3.75-3.12,9.74-15.4,16.72-16,21.8H357.9s0,2.94-2.13,2.94H337V42.78c0-9.11,13.09-14,16.44-24.22Z"/><path class="cls-1" d="M209.15,12.1c0-2.37.28-4.85.28-4.85l-14,28.32s-1.73,0-3.29-2.54L179.9,7.08s.29,2.65.29,5V44.62s-3.34,0-3.34-2.53V4h2.82a4.2,4.2,0,0,1,3.52,2.71L194.55,31,207.53,4s5,.06,5,2.54V44.62s-3.34,0-3.34-2.53Z"/></g></g></svg>